<svg width="251" height="182" viewBox="0 0 251 182" fill="none" xmlns="http://www.w3.org/2000/svg">
<path d="M0 128.17C0 115.851 3.50338 104.776 10.5101 95.1948C17.5169 85.6133 26.4448 79.3915 37.407 76.6539C40.3453 62.095 47.013 50.0248 57.5232 40.8165C68.0333 31.4839 80.1256 26.8798 93.9131 26.8798C107.249 26.8798 119.228 31.3595 129.625 40.4432C140.135 49.527 146.916 61.0995 149.967 75.2852H153.018C166.354 75.2852 177.655 80.387 187.035 90.7151C196.415 101.043 201.162 113.487 201.162 128.046C201.162 142.729 196.415 155.173 187.035 165.501C177.655 175.829 166.354 181.055 153.018 181.055H48.2562C41.7015 181.055 35.4858 179.686 29.6092 176.824C23.7326 173.962 18.421 170.478 14.1265 165.75C9.83205 161.021 6.44169 155.297 3.84241 148.826C1.24313 142.356 0 135.263 0 128.17ZM16.3868 128.17C16.3868 137.627 19.5511 145.84 25.6538 152.56C31.7564 159.279 39.3282 162.763 48.1432 162.763H153.018C161.72 162.763 169.292 159.403 175.508 152.56C181.724 145.716 184.888 137.627 184.888 128.17C184.888 118.713 181.837 110.5 175.508 103.781C169.292 97.0614 161.833 93.5772 153.018 93.5772H137.31C136.18 93.5772 135.615 92.955 135.615 91.7106L134.823 85.6133C133.693 73.9164 129.173 64.086 121.375 56.371C113.577 48.656 104.31 44.7985 93.6871 44.7985C83.0639 44.7985 73.7969 48.656 65.8861 56.4954C57.9752 64.2104 53.5678 74.0408 52.5506 85.6133L51.7596 90.8396C51.7596 92.0839 51.1945 92.7061 49.9514 92.7061L44.8658 93.5772C36.7289 94.3238 29.9482 98.0568 24.4106 104.652C19.2121 111.247 16.3868 119.086 16.3868 128.17ZM116.403 19.6625C115.272 20.7824 115.498 21.6535 117.194 22.2757C122.053 24.6399 126.122 26.8798 129.399 29.1196C130.642 29.4929 131.546 29.3685 131.885 28.7463C138.779 21.6535 146.69 18.0449 155.844 18.0449C164.998 18.0449 172.796 21.4046 179.576 28.1241C186.244 34.8436 189.973 43.1808 190.765 53.0112L191.782 60.9751H207.829C215.175 60.9751 221.504 63.8371 226.815 69.6856C232.127 75.534 234.726 82.378 234.726 90.3418C234.726 97.808 232.353 104.279 227.72 109.878C223.086 115.478 217.322 118.589 210.429 119.46C209.299 119.46 208.733 120.082 208.733 121.451V135.512C208.733 136.881 209.299 137.503 210.429 137.503C221.843 136.756 231.449 131.779 239.247 122.695C247.045 113.611 251 102.785 251 90.3418C251 77.1517 246.819 65.9525 238.343 56.7443C229.867 47.4116 219.696 42.8075 207.829 42.8075H206.134C203.196 30.364 196.98 20.1603 187.487 12.072C178.107 3.98367 167.484 0.00172837 155.844 0.00172837C140.022 -0.122707 126.8 6.47237 116.403 19.6625Z" fill="#507E9A"/>
</svg>
