<svg width="227" height="142" viewBox="0 0 227 142" fill="none" xmlns="http://www.w3.org/2000/svg">
<path d="M0 92.6191C0 81.3955 3.93263 71.4406 11.7979 62.6569C19.6631 53.8733 29.604 48.2127 41.7296 45.7728C45.116 32.402 52.872 21.4712 64.7791 12.8827C76.6862 4.29425 90.4504 0 105.853 0C120.928 0 134.365 4.19665 146.163 12.4924C157.961 20.7881 165.607 31.5237 169.103 44.6016H172.708C182.539 44.6016 191.606 46.7487 199.909 50.9454C208.211 55.142 214.874 60.9978 219.681 68.4151C224.487 75.8325 227 83.8354 227 92.6191C227 101.208 224.706 109.21 220.118 116.53C215.53 123.85 209.194 129.706 201.219 134.098C193.245 138.489 184.397 140.832 174.893 141.125H52.435C37.7969 140.539 25.4528 135.562 15.2936 126.192C5.13427 116.921 0 105.697 0 92.6191ZM18.68 92.6191C18.68 101.11 21.9572 108.43 28.5115 114.676C35.0659 120.922 43.0404 124.24 52.435 124.728H174.674C184.069 124.338 192.043 120.922 198.598 114.676C205.261 108.43 208.539 101.012 208.539 92.6191C208.539 84.0306 204.934 76.7108 197.833 70.4647C190.732 64.2185 182.321 61.0954 172.489 61.0954H155.011C153.809 61.0954 153.154 60.5098 153.154 59.3387L152.389 53.7757C151.188 43.2352 146.053 34.354 137.096 27.2294C128.138 20.1049 117.76 16.4938 105.853 16.4938C93.9461 16.4938 83.4591 20.1049 74.7199 27.2294C65.8715 34.354 60.8465 43.2352 59.7541 53.7757L58.8802 59.3387C58.8802 60.5098 58.1155 61.0954 56.6954 61.0954H50.9057C41.7296 62.0714 34.0828 65.5848 27.9654 71.5382C21.8479 77.4916 18.68 84.5186 18.68 92.6191Z" fill="#1A6D9E"/>
</svg>
