<svg width="258" height="199" viewBox="0 0 258 199" fill="none" xmlns="http://www.w3.org/2000/svg">
<path d="M0 151.773C0 160.315 2.11161 168.193 6.33482 175.407C10.558 182.621 16.317 188.316 23.6116 192.492C30.9062 196.668 38.7768 198.757 47.3192 198.757H151.268C159.81 198.757 167.777 196.668 175.071 192.492C182.366 188.316 188.221 182.621 192.444 175.407C196.667 168.193 198.875 160.315 198.875 151.773C198.875 145.508 197.531 139.149 194.844 132.789C202.138 124.057 205.786 113.521 205.786 101.467C205.786 94.7274 204.442 88.273 201.85 82.1034C199.259 75.9338 195.612 70.7133 191.1 66.2522C186.589 61.7911 181.31 58.1843 175.071 55.6215C168.833 52.9638 162.306 51.7299 155.491 51.7299C141.286 51.7299 128.904 57.2351 118.25 68.2455C110.859 64.0691 102.221 61.9809 92.3348 61.9809C78.8013 61.9809 66.8996 66.1573 56.5335 74.4151C46.1674 82.6729 39.4487 93.3036 36.5692 106.212C25.8192 108.68 17.0848 114.091 10.2701 122.633C3.45536 131.176 0 140.857 0 151.773ZM16.4129 151.773C16.4129 143.8 19.1004 136.966 24.4754 131.176C29.8504 125.386 36.5692 122.064 44.6317 121.114L49.4308 120.83C50.5826 120.83 51.2545 120.26 51.2545 119.121L51.9263 113.996C53.2701 103.745 57.7813 95.1071 65.4598 88.273C73.1384 81.3441 82.1607 77.927 92.4308 77.927C102.989 77.927 112.203 81.439 119.978 88.3679C127.848 95.2969 132.167 103.839 133.127 114.091L133.799 119.596C133.991 120.64 134.663 121.209 135.815 121.209H151.268C159.714 121.209 167.009 124.247 173.152 130.321C179.295 136.396 182.366 143.515 182.366 151.868C182.366 160.505 179.295 167.814 173.248 173.888C167.201 179.963 159.81 183 151.364 183H47.3192C38.8728 183 31.6741 179.963 25.5312 173.793C19.4844 167.624 16.4129 160.315 16.4129 151.773ZM80.721 35.3092C80.721 37.5872 81.4888 39.5805 83.0245 41.289L89.3594 47.3637C91.7589 49.1671 93.7746 49.9265 95.5022 49.7366C97.5179 49.7366 99.2455 48.8824 100.781 47.2688C102.317 45.6552 103.085 43.6619 103.085 41.3839C103.085 39.1059 102.221 37.2075 100.589 35.7838L94.9263 29.5193C93.1987 28.0006 91.279 27.2412 89.0714 27.2412C86.7679 27.2412 84.7522 28.0006 83.1205 29.6142C81.4888 31.1328 80.721 33.0312 80.721 35.3092ZM131.975 77.3575C138.598 70.9981 146.469 67.8658 155.491 67.8658C164.993 67.8658 173.056 71.093 179.679 77.6423C186.301 84.1916 189.661 92.0697 189.661 101.467C189.661 107.351 188.029 113.236 184.766 118.931C175.455 109.819 164.321 105.263 151.268 105.263H148.196C145.797 94.9172 140.422 85.6153 131.975 77.3575ZM147.621 27.2412C147.621 29.7091 148.388 31.6074 149.828 33.1261C151.268 34.6448 153.188 35.3092 155.491 35.3092C157.987 35.3092 159.906 34.5499 161.442 33.1261C162.978 31.6074 163.65 29.7091 163.65 27.2412V7.78321C163.65 5.5052 162.882 3.70177 161.346 2.1831C159.81 0.66442 157.891 0 155.491 0C153.188 0 151.364 0.759337 149.828 2.1831C148.292 3.60685 147.621 5.5052 147.621 7.78321V27.2412ZM200.603 48.9773C200.603 51.4451 201.275 53.3435 202.714 54.8622C204.73 56.3808 206.746 57.1402 208.665 57.1402C210.393 57.1402 212.312 56.3808 214.328 54.8622L228.054 41.289C229.589 39.5805 230.357 37.5872 230.357 35.2143C230.357 32.9363 229.589 31.0379 228.054 29.5193C226.518 28.0006 224.598 27.2412 222.391 27.2412C220.087 27.2412 218.263 28.0006 216.824 29.5193L202.714 43.0924C201.275 44.8958 200.603 46.7942 200.603 48.9773ZM208.185 161.359C208.185 163.637 208.953 165.631 210.585 167.339L216.824 173.319C218.263 174.838 220.087 175.597 222.391 175.597C224.694 175.597 226.614 174.838 228.15 173.224C229.685 171.61 230.453 169.712 230.453 167.339C230.453 165.251 229.685 163.353 228.15 161.834L221.911 155.664C220.375 154.146 218.551 153.386 216.44 153.386C214.136 153.386 212.217 154.146 210.681 155.664C209.049 157.183 208.185 159.081 208.185 161.359ZM222.295 101.467C222.295 103.65 223.158 105.453 224.79 106.972C226.326 108.49 228.342 109.25 230.645 109.25H250.225C252.433 109.25 254.257 108.49 255.792 107.067C257.328 105.643 258 103.745 258 101.467C258 99.1885 257.232 97.2902 255.792 95.7715C254.353 94.2528 252.433 93.3985 250.225 93.3985H230.645C228.342 93.3985 226.422 94.1579 224.79 95.7715C223.062 97.3851 222.295 99.2834 222.295 101.467Z" fill="#0D699F"/>
</svg>
