<svg width="232" height="204" viewBox="0 0 232 204" fill="none" xmlns="http://www.w3.org/2000/svg">
<g filter="url(#filter0_d_2005_397)">
<path d="M4 92.359C4 81.1433 7.89001 71.1954 15.67 62.4179C23.4501 53.6404 33.2832 48.0813 45.1693 45.5456C48.5191 32.2818 56.191 21.3586 67.9691 12.7762C79.7472 4.1937 93.2542 0 108.49 0C123.402 0 136.585 4.1937 148.255 12.4836C159.925 20.7735 167.489 31.5015 170.946 44.5703H174.404C184.021 44.5703 192.99 46.7159 201.202 50.9096C209.414 55.1033 216.006 60.955 220.76 68.2696C225.515 75.5842 228 83.679 228 92.359C228 100.941 225.731 108.841 221.192 116.156C216.654 123.47 210.387 129.322 202.499 133.711C194.611 138.1 185.966 140.44 176.565 140.635C175.161 140.635 174.404 140.05 174.404 138.977V126.006C174.404 124.836 175.161 124.251 176.565 124.251C185.75 123.861 193.638 120.545 200.122 114.303C206.605 108.061 209.847 100.746 209.847 92.2614C209.847 83.7765 206.281 76.4619 199.257 70.2201C192.233 63.9783 183.913 60.8575 174.296 60.8575H156.899C155.603 60.8575 154.954 60.2723 154.954 59.1995L154.09 53.5429C152.901 43.0098 147.822 34.1348 139.07 27.1128C130.209 19.9932 120.052 16.4822 108.274 16.4822C96.4959 16.4822 86.1225 19.9932 77.478 27.1128C68.7255 34.2323 63.863 43.0098 62.7824 53.5429L62.0261 58.7118C62.0261 59.8822 61.2697 60.5649 59.8649 60.5649L54.138 60.8575C45.1693 61.8327 37.6054 65.3437 31.4462 71.2929C25.287 77.2421 22.2615 84.2642 22.2615 92.359C22.2615 100.844 25.5031 108.159 31.9865 114.4C38.4699 120.642 46.3579 123.958 55.5427 124.348C56.7313 124.348 57.3796 124.933 57.3796 126.104V139.075C57.3796 140.148 56.7313 140.733 55.5427 140.733C41.0632 140.148 28.8529 135.174 18.8037 125.811C8.75447 116.448 4 105.33 4 92.359ZM61.8099 157.605C61.8099 157.215 61.918 156.532 62.2422 155.655L79.8553 99.381C80.5036 97.5279 81.6922 96.065 83.3131 95.0898C84.9339 94.1145 86.6628 93.6268 88.2836 93.6268C89.04 93.6268 89.9045 93.7244 90.877 93.9194C93.4703 94.3095 95.4153 95.5774 96.712 97.528C98.0087 99.4785 98.3328 101.624 97.5765 104.062L79.9633 159.946C78.6667 164.14 75.6411 166.188 71.1028 166.188C70.6705 166.188 70.3464 166.09 69.9141 165.993C69.2658 165.798 68.9416 165.7 68.8336 165.7C66.4563 165.115 64.7274 164.042 63.5388 162.482C62.3502 160.824 61.8099 159.263 61.8099 157.605ZM90.1206 185.011L116.486 99.4785C116.918 97.6255 117.999 96.1626 119.728 95.1873C121.457 94.212 123.186 93.7244 125.023 93.7244C125.995 93.7244 126.968 93.8219 127.94 94.0169C130.317 94.6021 132.046 95.87 133.235 97.8205C134.424 99.7711 134.64 101.819 133.991 104.062L107.734 189.692C107.301 191.35 106.329 192.715 104.6 193.886C102.871 195.056 101.142 195.641 99.0892 195.641C98.1167 195.641 97.1442 195.446 96.3878 195.153C94.2267 194.666 92.3898 193.398 90.7689 191.35C89.5803 189.594 89.3642 187.546 90.1206 185.011ZM134.748 157.8C134.748 157.41 134.856 156.727 135.18 155.557L152.793 99.2835C153.441 97.4304 154.522 95.9675 156.035 94.9922C157.656 94.017 159.276 93.5293 161.005 93.5293C161.87 93.5293 162.842 93.6268 163.815 93.8219C166.084 94.4071 167.705 95.3823 168.785 96.8453C169.866 98.3082 170.406 99.8686 170.406 101.429C170.406 101.722 170.298 102.209 170.19 102.794C170.082 103.38 169.974 103.77 169.974 103.965L152.361 159.848C151.929 161.701 150.956 163.262 149.335 164.335C147.714 165.407 145.877 165.993 143.824 165.993L141.231 165.505C139.07 164.92 137.449 163.944 136.26 162.384C135.288 160.921 134.748 159.361 134.748 157.8Z" fill="#6D9AB5"/>
</g>
<defs>
<filter id="filter0_d_2005_397" x="0" y="0" width="232" height="203.641" filterUnits="userSpaceOnUse" color-interpolation-filters="sRGB">
<feFlood flood-opacity="0" result="BackgroundImageFix"/>
<feColorMatrix in="SourceAlpha" type="matrix" values="0 0 0 0 0 0 0 0 0 0 0 0 0 0 0 0 0 0 127 0" result="hardAlpha"/>
<feOffset dy="4"/>
<feGaussianBlur stdDeviation="2"/>
<feComposite in2="hardAlpha" operator="out"/>
<feColorMatrix type="matrix" values="0 0 0 0 0 0 0 0 0 0 0 0 0 0 0 0 0 0 0.25 0"/>
<feBlend mode="normal" in2="BackgroundImageFix" result="effect1_dropShadow_2005_397"/>
<feBlend mode="normal" in="SourceGraphic" in2="effect1_dropShadow_2005_397" result="shape"/>
</filter>
</defs>
</svg>
