<svg width="217" height="173" viewBox="0 0 217 173" fill="none" xmlns="http://www.w3.org/2000/svg">
<path d="M0 80.7814C0 90.26 3.45608 98.7138 10.3682 106.143C17.2804 113.572 26.1824 118.696 37.1791 121.428L30.3716 135.774C30.0574 136.97 30.5811 137.653 31.8378 137.653H54.1453L43.2534 169.931H46.1858L87.7635 125.356C88.1824 125.015 88.1824 124.588 87.973 124.161C87.7635 123.734 87.2399 123.563 86.5068 123.563H63.6757L89.6486 83.9409C90.277 82.7454 89.8581 82.1477 88.1824 82.1477H57.3919C56.4493 82.1477 55.6115 82.5746 55.0878 83.3432L43.6723 107.851C36.2365 106.314 30.0574 102.983 25.1351 97.9453C20.2128 92.9072 17.8041 87.1858 17.8041 80.7814C17.8041 73.6938 20.7365 67.5455 26.6013 62.3366C32.4662 57.1277 39.7973 54.1389 48.5946 53.285L54.0405 52.6872C55.402 52.6872 56.1351 52.1749 56.1351 51.2356L56.8682 46.7951C57.9155 37.5727 62.6284 29.802 71.1115 23.5684C79.5946 17.3347 89.5439 14.1752 100.959 14.1752C112.375 14.1752 122.324 17.3347 130.807 23.5684C139.395 29.802 144.213 37.5727 145.47 46.7951L146.098 51.7479C146.098 52.7726 146.726 53.285 148.088 53.285H164.949C174.48 53.285 182.544 56.0175 189.247 61.3973C195.949 66.777 199.301 73.2669 199.301 80.8668C199.301 88.1252 196.159 94.4442 189.98 99.7386C183.801 105.033 176.155 107.936 167.044 108.534C165.682 108.534 164.949 109.046 164.949 110.156V121.855C164.949 122.795 165.682 123.307 167.044 123.307C173.851 123.136 180.345 121.855 186.524 119.55C192.703 117.244 198.044 114.17 202.443 110.413C206.841 106.655 210.402 102.215 213.02 97.006C215.638 91.8824 217 86.5027 217 80.9522C217 73.2669 214.696 66.1793 209.983 59.6894C205.27 53.1996 198.986 48.076 191.027 44.3188C183.068 40.5615 174.375 38.6828 165.054 38.6828H161.703C158.247 27.3256 150.916 18.0178 139.605 10.8449C128.294 3.67189 115.517 0 101.064 0C86.2973 0 73.1013 3.75728 61.6858 11.1864C50.2703 18.6156 42.9392 28.1796 39.6926 39.8783C28.1723 42.0986 18.6419 46.9659 11.1013 54.6513C3.56081 62.3366 0 70.9613 0 80.7814ZM85.4594 164.978C85.4594 166.345 85.9831 167.626 87.0304 168.907C88.0777 170.187 89.7534 171.127 91.848 171.639C93.3142 171.895 94.152 172.066 94.4662 172.066C95.4088 172.066 96.6655 171.81 98.4459 171.212C100.645 170.444 102.111 168.907 102.845 166.772L105.777 157.806C106.405 155.927 106.196 154.134 104.939 152.426C103.682 150.718 101.902 149.608 99.3885 149.01C97.0844 148.498 94.8851 148.669 92.7905 149.693C90.6959 150.718 89.2297 152.17 88.4966 154.219L85.6689 162.758C85.5642 164.21 85.4594 164.978 85.4594 164.978ZM99.4932 124.246C99.4932 125.442 100.017 126.723 101.064 128.004C102.111 129.284 103.682 130.224 105.777 130.821C108.081 131.419 110.385 131.334 112.48 130.394C114.574 129.455 115.936 128.004 116.669 125.954L119.811 117.073C120.439 115.195 120.125 113.401 118.973 111.694C117.716 109.986 115.831 108.79 113.422 108.192C111.014 107.68 108.814 107.851 106.615 108.876C104.416 109.9 103.054 111.352 102.321 113.316L99.8074 121.941C99.598 123.392 99.4932 124.161 99.4932 124.246ZM129.027 138.336C129.027 139.788 129.551 141.239 130.703 142.691C131.855 144.143 133.53 145.082 135.625 145.68C135.834 145.68 136.253 145.765 136.882 145.851C137.405 145.936 137.824 146.021 138.138 146.021C139.5 146.021 140.861 145.851 142.118 145.338C144.108 144.74 145.574 143.118 146.412 140.471L149.03 131.846C149.764 129.882 149.554 128.004 148.402 126.21C147.25 124.417 145.47 123.222 143.166 122.624C140.547 122.111 138.139 122.368 136.044 123.307C133.949 124.332 132.588 125.869 132.169 127.833L129.341 136.628C129.132 137.141 129.027 137.738 129.027 138.336ZM143.27 97.433C143.166 98.7992 143.689 100.08 144.841 101.446C145.993 102.813 147.669 103.837 149.973 104.691C150.811 105.033 151.649 105.204 152.696 105.204C153.848 105.204 155 104.948 156.257 104.521C158.456 103.667 159.922 102.044 160.865 99.6532L163.902 90.8577C164.111 89.7476 164.216 89.1499 164.216 88.9791C164.216 87.5274 163.693 86.1611 162.541 84.7948C161.388 83.4286 159.713 82.4892 157.409 81.9769C157.199 81.9769 156.78 81.8915 156.257 81.8061C155.628 81.5499 155.209 81.5499 154.895 81.5499C153.115 81.5499 151.439 81.9769 149.764 82.8308C148.088 83.6847 146.936 85.051 146.307 86.9297L143.48 95.5543C143.375 96.2375 143.27 96.8352 143.27 97.433Z" fill="#9BC3DB"/>
</svg>
