<svg width="204" height="204" viewBox="0 0 204 204" fill="none" xmlns="http://www.w3.org/2000/svg">
<path d="M0 101.651C0 99.354 0.768361 97.3439 2.40113 95.7167C4.0339 94.1853 6.05085 93.4195 8.16384 93.4195H27.7571C29.9661 93.4195 31.791 94.1853 33.3277 95.8125C34.7684 97.4396 35.5367 99.354 35.5367 101.651C35.5367 103.948 34.8644 105.863 33.4237 107.49C31.983 109.117 30.0621 109.883 27.8531 109.883H8.25989C6.05085 109.883 4.12995 109.117 2.49718 107.49C0.864409 105.863 0 103.948 0 101.651ZM27.4689 167.983C27.4689 165.781 28.2373 163.867 29.678 162.144L43.7966 148.457C45.2373 146.925 47.1582 146.255 49.4633 146.255C51.7684 146.255 53.6893 147.021 55.226 148.457C56.7627 149.892 57.5311 151.711 57.5311 153.913C57.5311 156.21 56.7627 158.315 55.226 160.038L41.5876 173.63C37.6497 176.693 33.7119 176.693 29.774 173.63C28.2373 172.099 27.4689 170.184 27.4689 167.983ZM27.4689 35.5109C27.4689 33.3094 28.2373 31.3951 29.678 29.6722C31.5989 28.045 33.6158 27.2793 35.8249 27.2793C37.9379 27.2793 39.8588 28.045 41.4915 29.5765L55.226 43.6468C56.7627 45.0826 57.5311 46.9969 57.5311 49.2941C57.5311 51.5913 56.7627 53.5057 55.226 55.0371C53.6893 56.5686 51.7684 57.3343 49.4633 57.3343C47.1582 57.3343 45.2373 56.5686 43.7966 55.0371L29.774 41.3496C28.2373 39.8182 27.4689 37.8081 27.4689 35.5109ZM51.9604 101.651C51.9604 92.7495 54.1695 84.4222 58.6836 76.7648C63.1977 69.1075 69.2486 62.9816 77.0282 58.4829C84.8079 53.9842 93.0678 51.7828 102 51.7828C108.723 51.7828 115.158 53.1228 121.401 55.8029C127.548 58.4829 132.927 62.0244 137.345 66.5231C141.859 71.0218 145.412 76.2862 148.006 82.4121C150.599 88.538 151.943 95.0467 151.943 101.747C151.943 110.744 149.734 119.072 145.22 126.729C140.706 134.386 134.655 140.416 126.972 144.915C119.288 149.414 110.932 151.615 101.904 151.615C92.8757 151.615 84.5198 149.414 76.8362 144.915C69.1525 140.416 63.1017 134.386 58.5876 126.729C54.2655 118.976 51.9604 110.649 51.9604 101.651ZM68.2881 101.651C68.2881 111.031 71.5537 118.976 78.1808 125.58C84.7119 132.185 92.6836 135.535 102.096 135.535C111.508 135.535 119.48 132.185 126.107 125.58C132.734 118.976 136.096 111.031 136.096 101.651C136.096 92.4624 132.734 84.6136 126.107 78.0091C119.48 71.5004 111.508 68.246 102.096 68.246C92.7797 68.246 84.8079 71.5004 78.2768 78.0091C71.5537 84.6136 68.2881 92.4624 68.2881 101.651ZM93.8362 176.119C93.8362 173.822 94.6045 171.907 96.2373 170.376C97.8701 168.844 99.791 168.079 102 168.079C104.305 168.079 106.322 168.844 107.859 170.376C109.395 171.907 110.164 173.822 110.164 176.119V195.166C110.164 197.464 109.395 199.474 107.763 201.101C106.13 202.728 104.209 203.494 102 203.494C99.791 203.494 97.774 202.728 96.2373 201.101C94.6045 199.474 93.8362 197.464 93.8362 195.166V176.119ZM93.8362 27.7579V8.23164C93.8362 6.03016 94.6045 4.11582 96.2373 2.48864C97.8701 0.861453 99.791 0 102.096 0C104.401 0 106.226 0.765734 107.859 2.39292C109.492 4.0201 110.26 5.93444 110.26 8.13592V27.7579C110.26 29.9593 109.492 31.778 107.859 33.3094C106.226 34.8409 104.305 35.5109 102.096 35.5109C99.887 35.5109 97.87 34.7452 96.3333 33.3094C94.7966 31.8737 93.8362 29.9593 93.8362 27.7579ZM146.853 153.913C146.853 151.711 147.621 149.892 149.062 148.552C150.503 147.021 152.328 146.351 154.441 146.351C156.746 146.351 158.667 147.117 160.203 148.552L174.226 162.24C175.763 163.867 176.531 165.877 176.531 168.079C176.531 170.28 175.763 172.194 174.226 173.726C170.384 176.693 166.542 176.693 162.701 173.726L149.062 160.134C147.621 158.411 146.853 156.401 146.853 153.913ZM146.853 49.3898C146.853 46.9969 147.621 45.0826 149.062 43.7425L162.701 29.6722C164.333 28.1407 166.254 27.375 168.367 27.375C170.672 27.375 172.593 28.1407 174.13 29.7679C175.763 31.3951 176.531 33.3094 176.531 35.5109C176.531 37.9038 175.763 39.9139 174.226 41.4453L160.203 55.1328C158.475 56.6643 156.554 57.43 154.441 57.43C152.232 57.43 150.503 56.6643 149.062 55.1328C147.621 53.6014 146.853 51.687 146.853 49.3898ZM168.559 101.651C168.559 99.354 169.328 97.4396 170.864 95.7167C172.401 94.1853 174.226 93.4195 176.339 93.4195H195.74C197.949 93.4195 199.87 94.281 201.503 95.9082C203.136 97.5354 204 99.4497 204 101.651C204 103.853 203.136 105.767 201.503 107.394C199.87 109.021 197.949 109.787 195.74 109.787H176.339C174.13 109.787 172.209 109.021 170.768 107.394C169.328 105.767 168.559 103.948 168.559 101.651Z" fill="#005FC4"/>
</svg>
